<svg width="500" height="500" viewBox="0 0 500 500" fill="none" xmlns="http://www.w3.org/2000/svg">
<g clip-path="url(#clip0_1_2)">
<mask id="mask0_1_2" style="mask-type:alpha" maskUnits="userSpaceOnUse" x="124" y="124" width="252" height="252">
<path d="M333.333 250L375 125L250 166.667L125 125L166.667 250L125 375L250 333.333L375 375L333.333 250Z" fill="#D9D9D9" stroke="black"/>
</mask>
<g mask="url(#mask0_1_2)">
<g filter="url(#filter0_f_1_2)">
<path d="M-67.3298 -67.2304C-60.873 -66.2317 -54.4163 -65.2881 -47.9595 -64.3998C-41.5071 -63.6839 -35.0526 -63.0806 -28.5958 -62.5901C-22.139 -62.3602 -15.6867 -62.2674 -9.23877 -62.3116C-2.782 -62.6342 3.67477 -63.0806 10.1315 -63.6507C16.5839 -64.4285 23.0385 -65.2837 29.4952 -66.2162C35.952 -67.2371 42.4065 -68.2646 48.8589 -69.2987C55.3157 -70.2754 61.7702 -71.188 68.2226 -72.0366C74.6793 -72.695 81.1361 -73.2342 87.5929 -73.6541C94.0452 -73.8087 100.5 -73.8264 106.957 -73.7071C113.413 -73.3182 119.868 -72.8077 126.32 -72.1758C132.777 -71.3493 139.234 -70.4544 145.691 -69.491C152.143 -68.4568 158.597 -67.4271 165.054 -66.4018C171.507 -65.4516 177.961 -64.5766 184.418 -63.7767C190.875 -63.18 197.329 -62.705 203.782 -62.3514C210.238 -62.2718 216.695 -62.3293 223.152 -62.5238C229.604 -62.9834 236.059 -63.5579 242.516 -64.2473C248.972 -65.118 255.427 -66.0482 261.879 -67.0382C268.336 -68.0768 274.793 -69.1021 281.25 -70.1141C287.702 -71.0289 294.156 -71.862 300.613 -72.6133C307.066 -73.148 313.52 -73.5546 319.977 -73.833C326.434 -73.8375 332.888 -73.7049 339.341 -73.4353C345.797 -72.9094 352.254 -72.2752 358.711 -71.5327C365.163 -70.6223 371.618 -69.6633 378.075 -68.6557C384.531 -67.6171 390.986 -66.6007 397.438 -65.6063C403.895 -64.7313 410.352 -63.9446 416.809 -63.2463C423.261 -62.7779 429.715 -62.4398 436.172 -62.2321C442.625 -62.3028 449.079 -62.5105 455.536 -62.8552C461.993 -63.443 468.447 -64.1346 474.9 -64.9301C481.356 -65.8715 487.813 -66.8548 494.27 -67.8801C500.722 -68.9142 507.177 -69.9152 513.634 -70.8831C520.09 -71.7139 526.545 -72.4498 532.997 -73.0906C539.454 -73.4928 545.911 -73.7579 552.368 -73.8861C552.748 -67.3586 553.589 -60.8289 554.893 -54.297C556.992 -47.7695 559.399 -41.2398 562.112 -34.7079C565.197 -28.1805 568.328 -21.6508 571.506 -15.1189C574.498 -8.59581 577.26 -2.06833 579.792 4.46357C581.644 10.9911 583.071 17.5207 584.075 24.0526C584.141 30.5801 583.737 37.1098 582.861 43.6417C581.12 50.1692 579.023 56.6989 576.57 63.2308C573.627 69.7582 570.571 76.2879 567.402 82.8198C564.287 89.3473 561.339 95.877 558.559 102.409C556.358 108.936 554.548 115.466 553.13 121.998C552.617 128.525 552.577 135.055 553.011 141.587C554.363 148.115 556.109 154.644 558.248 161.176C560.988 167.704 563.907 174.233 567.005 180.765C570.182 187.293 573.256 193.822 576.226 200.354C578.727 206.882 580.882 213.411 582.689 219.943C583.644 226.471 584.128 233 584.141 239.532C583.213 246.06 581.854 252.59 580.064 259.121C577.58 265.649 574.858 272.179 571.897 278.711C568.719 285.238 565.579 291.768 562.477 298.3C559.724 304.827 557.266 311.357 555.105 317.889C553.735 324.416 552.821 330.946 552.361 337.478C552.847 344.005 553.788 350.535 555.185 357.067C557.368 363.594 559.843 370.124 562.61 376.656C565.721 383.183 568.861 389.713 572.029 396.245C574.982 402.772 577.693 409.302 580.163 415.834C581.927 422.362 583.259 428.891 584.161 435.423C584.121 441.951 583.611 448.48 582.629 455.012C580.8 461.54 578.625 468.069 576.106 474.601C573.123 481.129 570.043 487.658 566.865 494.19C563.776 500.718 560.868 507.247 558.142 513.779C556.02 520.307 554.299 526.837 552.977 533.368C552.566 539.896 552.633 546.426 553.176 552.957C546.711 553.302 540.247 554.003 533.786 555.059C527.321 556.747 520.855 558.689 514.389 560.886C507.928 563.436 501.465 566.072 494.999 568.794C488.533 571.495 482.07 574.089 475.609 576.577C469.143 578.672 462.678 580.497 456.212 582.053C449.751 582.954 443.287 583.496 436.822 583.677C430.356 583.133 423.893 582.245 417.432 581.012C410.966 579.173 404.503 577.099 398.041 574.787C391.576 572.171 385.11 569.495 378.645 566.759C372.183 564.094 365.72 561.564 359.254 559.169C352.789 557.207 346.325 555.534 339.864 554.151C333.399 553.439 326.933 553.09 320.467 553.103C314.006 553.841 307.543 554.915 301.077 556.325C294.616 558.305 288.153 560.501 281.687 562.914C275.221 565.579 268.758 568.28 262.297 571.015C255.831 573.627 249.366 576.08 242.9 578.374C236.439 580.19 229.975 581.704 223.51 582.915C217.044 583.432 210.581 583.584 204.12 583.372C197.654 582.444 191.188 581.191 184.723 579.613C178.262 577.501 171.798 575.196 165.333 572.699C158.871 569.99 152.408 567.276 145.942 564.558C139.477 562.017 133.013 559.657 126.552 557.479C120.087 555.812 113.621 554.465 107.155 553.435C100.694 553.117 94.2308 553.163 87.7652 553.574C81.2996 554.683 74.8362 556.106 68.375 557.843C61.9094 560.075 55.446 562.479 48.9848 565.056C42.5192 567.782 36.0536 570.492 29.588 573.183C23.1268 575.645 16.6634 577.901 10.1978 579.951C3.73223 581.454 -2.73117 582.627 -9.19236 583.471C-15.6535 583.591 -22.117 583.348 -28.5826 582.742C-35.0437 581.452 -41.5071 579.865 -47.9728 577.982C-54.4339 575.636 -60.8973 573.145 -67.3629 570.511C-67.3408 563.869 -67.3386 557.227 -67.3563 550.584C-67.4138 543.942 -67.4911 537.299 -67.5883 530.657C-67.7121 524.01 -67.8447 517.366 -67.9861 510.723C-68.1319 504.081 -68.2733 497.439 -68.4103 490.796C-68.5252 484.154 -68.6247 477.509 -68.7087 470.862C-68.7529 464.22 -68.7749 457.578 -68.7749 450.935C-68.7352 444.293 -68.6755 437.65 -68.596 431.008C-68.4811 424.366 -68.3573 417.721 -68.2247 411.074C-68.0789 404.432 -67.9353 397.79 -67.7938 391.147C-67.6701 384.505 -67.5574 377.862 -67.4557 371.22C-67.3939 364.573 -67.3519 357.929 -67.3298 351.286C-67.3475 344.644 -67.3873 338.001 -67.4491 331.359C-67.5508 324.717 -67.6635 318.072 -67.7872 311.425C-67.9286 304.783 -68.0723 298.141 -68.2181 291.498C-68.3551 284.856 -68.4788 278.213 -68.5893 271.571C-68.6733 264.924 -68.7352 258.28 -68.7749 251.637C-68.7749 244.995 -68.7529 238.352 -68.7087 231.71C-68.6291 225.068 -68.5319 218.425 -68.417 211.783C-68.28 205.136 -68.1386 198.491 -67.9927 191.849C-67.8513 185.207 -67.7187 178.564 -67.595 171.922C-67.4977 165.28 -67.4182 158.635 -67.3563 151.988C-67.3386 145.346 -67.3408 138.703 -67.3629 132.061C-67.4248 125.419 -67.5066 118.776 -67.6082 112.134C-67.7364 105.487 -67.8712 98.8424 -68.0126 92.2001C-68.1584 85.5577 -68.2976 78.9153 -68.4302 72.2729C-68.5451 65.6305 -68.6424 58.9881 -68.7219 52.3457C-68.7617 45.6989 -68.7794 39.0544 -68.7749 32.412C-68.7308 25.7696 -68.6645 19.1272 -68.5761 12.4848C-68.4612 5.84243 -68.3352 -0.80217 -68.1982 -7.44897C-68.0568 -14.0869 -67.9154 -20.7271 -67.7739 -27.3695C-67.6502 -34.0119 -67.5397 -40.6543 -67.4425 -47.2967C-67.385 -53.9435 -67.3475 -60.5881 -67.3298 -67.2304Z" fill="url(#paint0_linear_1_2)"/>
<path d="M-67.3298 -67.2304C-67.3475 -60.5881 -67.385 -53.9435 -67.4425 -47.2967C-67.5397 -40.6543 -67.6502 -34.0119 -67.7739 -27.3695C-67.9154 -20.7271 -68.0568 -14.0869 -68.1982 -7.44897C-68.3352 -0.80217 -68.4612 5.84243 -68.5761 12.4848C-68.6645 19.1272 -68.7308 25.7696 -68.7749 32.412C-68.7794 39.0544 -68.7617 45.6989 -68.7219 52.3457C-68.6424 58.9881 -68.5451 65.6305 -68.4302 72.2729C-68.2976 78.9153 -68.1584 85.5577 -68.0126 92.2001C-67.8712 98.8424 -67.7364 105.487 -67.6082 112.134C-67.5066 118.776 -67.4248 125.419 -67.3629 132.061C-67.3408 138.703 -67.3386 145.346 -67.3563 151.988C-67.4182 158.635 -67.4977 165.28 -67.595 171.922C-67.7187 178.564 -67.8513 185.207 -67.9927 191.849C-68.1386 198.491 -68.28 205.136 -68.417 211.783C-68.5319 218.425 -68.6291 225.068 -68.7087 231.71C-68.7529 238.352 -68.7749 244.995 -68.7749 251.637C-64.2406 252.866 -59.7063 254.059 -55.172 255.217C-50.6377 256.264 -46.1033 257.241 -41.569 258.147C-37.0347 258.885 -32.5026 259.528 -27.9727 260.076C-19.4697 260.491 -14.4846 260.71 -13.0174 260.732C-7.3605 257.701 -1.70586 254.503 3.94657 251.14C9.58133 247.481 15.2072 243.696 20.8243 239.784C26.4061 235.688 31.9745 231.527 37.5297 227.302C43.0452 223.033 48.5407 218.774 54.0164 214.527C59.4434 210.382 64.8506 206.318 70.2378 202.336C75.5765 198.58 80.893 194.958 86.1875 191.471C91.4422 188.285 96.6748 185.26 101.885 182.396C107.065 179.85 112.229 177.457 117.378 175.217C122.504 173.254 127.622 171.407 132.731 169.675C137.835 168.123 142.942 166.63 148.051 165.193C153.168 163.81 158.297 162.418 163.437 161.017C168.607 159.528 173.796 157.968 179.002 156.337C184.261 154.503 189.549 152.549 194.865 150.477C200.244 148.126 205.658 145.631 211.107 142.992C216.635 140.062 222.204 136.991 227.812 133.778C233.504 130.313 239.236 126.74 245.008 123.059C250.868 119.214 256.768 115.311 262.708 111.352C268.727 107.343 274.782 103.339 280.872 99.3396C287.028 95.4152 293.211 91.5526 299.42 87.7519C305.678 84.1324 311.951 80.6212 318.24 77.2182C324.555 74.0583 330.875 71.0289 337.199 68.1297C343.515 65.4957 349.819 62.9877 356.112 60.6056C362.375 58.4578 368.613 56.4072 374.826 54.4538C380.974 52.6551 387.081 50.9072 393.149 49.2102C399.133 47.5662 405.064 45.9177 410.942 44.2648C416.709 42.5545 422.415 40.7868 428.058 38.9615C433.578 36.9861 439.034 34.9134 444.426 32.7434C449.68 30.3525 454.866 27.8467 459.984 25.226C464.974 22.3711 469.899 19.4034 474.76 16.3231C479.498 13.035 484.183 9.65859 488.814 6.19377C493.344 2.58752 497.83 -1.06732 502.271 -4.77079C506.642 -8.51846 510.986 -12.2639 515.304 -16.0072C511.967 -23.7235 508.834 -31.4398 505.904 -39.1561C503.734 -46.8724 502.077 -54.5887 500.932 -62.305C500.945 -70.0213 501.538 -77.7376 502.709 -85.4539C504.901 -93.1702 507.471 -100.887 510.418 -108.603C503.887 -107.679 497.355 -106.769 490.823 -105.872C484.295 -105.063 477.766 -104.331 471.234 -103.677C464.706 -103.213 458.177 -102.864 451.645 -102.63C445.117 -102.643 438.587 -102.776 432.056 -103.028C425.528 -103.505 418.998 -104.08 412.467 -104.751C405.939 -105.569 399.409 -106.428 392.877 -107.33C386.35 -108.254 379.82 -109.157 373.288 -110.041C366.761 -110.824 360.231 -111.526 353.699 -112.149C347.172 -112.565 340.642 -112.868 334.11 -113.058C327.583 -112.996 321.053 -112.815 314.521 -112.514C307.994 -111.997 301.464 -111.387 294.932 -110.684C288.405 -109.845 281.875 -108.97 275.343 -108.059C268.816 -107.136 262.286 -106.238 255.754 -105.368C249.226 -104.616 242.697 -103.949 236.165 -103.366C229.637 -102.99 223.108 -102.734 216.576 -102.597C210.044 -102.703 203.514 -102.928 196.987 -103.273C190.455 -103.834 183.925 -104.482 177.398 -105.215C170.866 -106.073 164.336 -106.961 157.809 -107.88C151.277 -108.795 144.747 -109.679 138.22 -110.532C131.688 -111.252 125.158 -111.886 118.63 -112.434C112.099 -112.766 105.569 -112.976 99.0414 -113.064C92.5095 -112.91 85.9798 -112.636 79.4523 -112.242C72.9204 -111.646 66.3907 -110.967 59.8633 -110.207C53.3314 -109.332 46.8017 -108.433 40.2742 -107.509C33.7423 -106.599 27.2126 -105.728 20.6851 -104.897C14.1532 -104.208 7.62352 -103.609 1.09604 -103.101C-5.43586 -102.818 -11.9633 -102.656 -18.4864 -102.617C-25.0183 -102.82 -31.548 -103.138 -38.0755 -103.571C-44.6074 -104.203 -51.1371 -104.915 -57.6645 -105.706C-64.1964 -106.594 -70.7283 -107.502 -77.2602 -108.43C-83.7877 -109.328 -90.3174 -110.181 -96.8493 -110.989C-100.951 -105.677 -99.1584 -98.9088 -91.4731 -90.6843C-87.4072 -86.835 -83.3568 -82.9613 -79.3219 -79.0634C-75.3135 -75.1257 -71.3161 -71.1814 -67.3298 -67.2304Z" fill="url(#paint1_linear_1_2)"/>
<path d="M529.729 248.568C534.263 247.339 538.798 246.148 543.332 244.995C547.866 243.952 552.401 242.98 556.935 242.078C561.469 241.349 566.004 240.715 570.538 240.175C576.875 243.061 580.051 249.377 580.064 259.121C577.58 265.649 574.858 272.179 571.897 278.711C568.719 285.238 565.579 291.768 562.477 298.3C559.724 304.827 557.266 311.357 555.105 317.889C553.735 324.416 552.821 330.946 552.361 337.478C552.847 344.005 553.788 350.535 555.185 357.067C557.368 363.594 559.843 370.124 562.61 376.656C565.721 383.183 568.861 389.713 572.029 396.245C574.982 402.772 577.693 409.302 580.163 415.834C581.927 422.362 583.259 428.891 584.161 435.423C584.121 441.951 583.611 448.48 582.629 455.012C580.8 461.54 578.625 468.069 576.106 474.601C573.123 481.129 570.043 487.658 566.865 494.19C563.776 500.718 560.868 507.247 558.142 513.779C556.02 520.307 554.299 526.837 552.977 533.368C552.566 539.896 552.633 546.426 553.176 552.957C547.245 553.249 541.312 553.839 535.377 554.727C529.446 556.164 523.515 557.83 517.585 559.726C511.649 561.966 505.716 564.313 499.785 566.766C493.854 569.276 487.924 571.744 481.993 574.171C476.057 576.363 470.124 578.371 464.194 580.197C458.263 581.549 452.33 582.621 446.394 583.412C440.463 583.602 434.533 583.482 428.602 583.054C422.671 582.037 416.738 580.756 410.803 579.209C404.872 577.229 398.941 575.09 393.01 572.792C387.079 570.313 381.146 567.82 375.211 565.314C369.28 562.928 363.349 560.674 357.418 558.552C351.483 556.824 345.55 555.344 339.619 554.111C333.688 553.448 327.757 553.088 321.826 553.03C315.891 553.592 309.958 554.442 304.027 555.583C298.096 557.231 292.163 559.087 286.228 561.151C280.297 563.502 274.366 565.926 268.435 568.423C262.505 570.916 256.572 573.331 250.636 575.669C244.705 577.715 238.775 579.554 232.844 581.184C226.913 582.298 220.98 583.12 215.044 583.65C209.114 583.566 203.183 583.18 197.252 582.49C191.317 581.231 185.384 579.726 179.453 577.976C173.522 575.841 167.591 573.576 161.66 571.181C155.725 568.671 149.792 566.18 143.861 563.71C137.93 561.421 131.999 559.295 126.068 557.333C120.133 555.808 114.2 554.551 108.269 553.561C102.338 553.163 96.4052 553.072 90.4699 553.289C84.5391 554.111 78.6082 555.209 72.6773 556.584C66.7465 558.431 60.8134 560.457 54.8781 562.663C48.9473 565.093 43.0164 567.566 37.0856 570.081C31.1503 572.524 25.2172 574.86 19.2864 577.088C13.3555 578.961 7.42465 580.605 1.49379 582.02C-7.41576 580.773 -13.3577 576.851 -16.3319 570.253C-16.3143 565.767 -16.2899 561.282 -16.259 556.796C-16.2104 552.31 -16.1574 547.824 -16.0999 543.339C-15.8789 536.612 -15.5828 532.129 -15.2116 529.888C-9.66524 526.843 -4.09457 523.566 1.50042 520.057C7.12634 516.124 12.7699 512.012 18.4312 507.72C24.1278 503.142 29.8377 498.468 35.5609 493.7C41.3061 488.843 47.0602 483.993 52.8231 479.149C58.5993 474.424 64.3777 469.806 70.1583 465.294C75.9345 461.078 81.704 457.047 87.4669 453.202C93.2122 449.773 98.9442 446.567 104.663 443.584C110.351 441.056 116.016 438.746 121.66 436.656C127.255 434.968 132.823 433.45 138.365 432.102C143.85 431.028 149.303 430.047 154.726 429.159C160.087 428.363 165.417 427.561 170.716 426.752C175.948 425.842 181.148 424.834 186.314 423.729C191.427 422.35 196.514 420.801 201.574 419.082C206.581 416.974 211.571 414.656 216.543 412.128C221.479 409.176 226.407 406.019 231.326 402.655C236.231 398.912 241.137 395.008 246.042 390.942C250.961 386.615 255.893 382.2 260.838 377.697C265.815 373.1 270.818 368.506 275.847 363.915C280.934 359.411 286.056 354.999 291.213 350.676C296.45 346.606 301.734 342.693 307.063 338.936C312.49 335.538 317.968 332.334 323.497 329.324C329.132 326.716 334.822 324.299 340.567 322.072C346.427 320.198 352.34 318.479 358.306 316.914C364.379 315.593 370.502 314.358 376.676 313.209C382.943 312.143 389.251 311.083 395.602 310.027C402.028 308.891 408.482 307.673 414.966 306.374C421.493 304.845 428.036 303.17 434.595 301.349C441.166 299.201 447.736 296.872 454.303 294.362C460.848 291.485 467.373 288.429 473.879 285.194C480.327 281.627 486.735 277.917 493.103 274.064C499.383 269.98 505.61 265.817 511.784 261.574C520.791 255.073 526.773 250.738 529.729 248.568Z" fill="url(#paint2_linear_1_2)"/>
</g>
</g>
<mask id="mask1_1_2" style="mask-type:alpha" maskUnits="userSpaceOnUse" x="7" y="7" width="487" height="487">
<circle cx="250.139" cy="250.139" r="213.068" stroke="white" stroke-width="60"/>
</mask>
<g mask="url(#mask1_1_2)">
<g filter="url(#filter1_f_1_2)">
<path d="M-67.3298 -67.2304C-60.873 -66.2317 -54.4163 -65.2881 -47.9595 -64.3998C-41.5071 -63.6839 -35.0526 -63.0806 -28.5958 -62.5901C-22.139 -62.3602 -15.6867 -62.2674 -9.23877 -62.3116C-2.782 -62.6342 3.67477 -63.0806 10.1315 -63.6507C16.5839 -64.4285 23.0385 -65.2837 29.4952 -66.2162C35.952 -67.2371 42.4065 -68.2646 48.8589 -69.2987C55.3157 -70.2754 61.7702 -71.188 68.2226 -72.0366C74.6793 -72.695 81.1361 -73.2342 87.5929 -73.6541C94.0452 -73.8087 100.5 -73.8264 106.957 -73.7071C113.413 -73.3182 119.868 -72.8077 126.32 -72.1758C132.777 -71.3493 139.234 -70.4544 145.691 -69.491C152.143 -68.4568 158.597 -67.4271 165.054 -66.4018C171.507 -65.4516 177.961 -64.5766 184.418 -63.7767C190.875 -63.18 197.329 -62.705 203.782 -62.3514C210.238 -62.2718 216.695 -62.3293 223.152 -62.5238C229.604 -62.9834 236.059 -63.5579 242.516 -64.2473C248.972 -65.118 255.427 -66.0482 261.879 -67.0382C268.336 -68.0768 274.793 -69.1021 281.25 -70.1141C287.702 -71.0289 294.156 -71.862 300.613 -72.6133C307.066 -73.148 313.52 -73.5546 319.977 -73.833C326.434 -73.8375 332.888 -73.7049 339.341 -73.4353C345.797 -72.9094 352.254 -72.2752 358.711 -71.5327C365.163 -70.6223 371.618 -69.6633 378.075 -68.6557C384.531 -67.6171 390.986 -66.6007 397.438 -65.6063C403.895 -64.7313 410.352 -63.9446 416.809 -63.2463C423.261 -62.7779 429.715 -62.4398 436.172 -62.2321C442.625 -62.3028 449.079 -62.5105 455.536 -62.8552C461.993 -63.443 468.447 -64.1346 474.9 -64.9301C481.356 -65.8715 487.813 -66.8548 494.27 -67.8801C500.722 -68.9142 507.177 -69.9152 513.634 -70.8831C520.09 -71.7139 526.545 -72.4498 532.997 -73.0906C539.454 -73.4928 545.911 -73.7579 552.368 -73.8861C552.748 -67.3586 553.589 -60.8289 554.893 -54.297C556.992 -47.7695 559.399 -41.2398 562.112 -34.7079C565.197 -28.1805 568.328 -21.6508 571.506 -15.1189C574.498 -8.59581 577.26 -2.06833 579.792 4.46357C581.644 10.9911 583.071 17.5207 584.075 24.0526C584.141 30.5801 583.737 37.1098 582.861 43.6417C581.12 50.1692 579.023 56.6989 576.57 63.2308C573.627 69.7582 570.571 76.2879 567.402 82.8198C564.287 89.3473 561.339 95.877 558.559 102.409C556.358 108.936 554.548 115.466 553.13 121.998C552.617 128.525 552.577 135.055 553.011 141.587C554.363 148.115 556.109 154.644 558.248 161.176C560.988 167.704 563.907 174.233 567.005 180.765C570.182 187.293 573.256 193.822 576.226 200.354C578.727 206.882 580.882 213.411 582.689 219.943C583.644 226.471 584.128 233 584.141 239.532C583.213 246.06 581.854 252.59 580.064 259.121C577.58 265.649 574.858 272.179 571.897 278.711C568.719 285.238 565.579 291.768 562.477 298.3C559.724 304.827 557.266 311.357 555.105 317.889C553.735 324.416 552.821 330.946 552.361 337.478C552.847 344.005 553.788 350.535 555.185 357.067C557.368 363.594 559.843 370.124 562.61 376.656C565.721 383.183 568.861 389.713 572.029 396.245C574.982 402.772 577.693 409.302 580.163 415.834C581.927 422.362 583.259 428.891 584.161 435.423C584.121 441.951 583.611 448.48 582.629 455.012C580.8 461.54 578.625 468.069 576.106 474.601C573.123 481.129 570.043 487.658 566.865 494.19C563.776 500.718 560.868 507.247 558.142 513.779C556.02 520.307 554.299 526.837 552.977 533.368C552.566 539.896 552.633 546.426 553.176 552.957C546.711 553.302 540.247 554.003 533.786 555.059C527.321 556.747 520.855 558.689 514.389 560.886C507.928 563.436 501.465 566.072 494.999 568.794C488.533 571.495 482.07 574.089 475.609 576.577C469.143 578.672 462.678 580.497 456.212 582.053C449.751 582.954 443.287 583.496 436.822 583.677C430.356 583.133 423.893 582.245 417.432 581.012C410.966 579.173 404.503 577.099 398.041 574.787C391.576 572.171 385.11 569.495 378.645 566.759C372.183 564.094 365.72 561.564 359.254 559.169C352.789 557.207 346.325 555.534 339.864 554.151C333.399 553.439 326.933 553.09 320.467 553.103C314.006 553.841 307.543 554.915 301.077 556.325C294.616 558.305 288.153 560.501 281.687 562.914C275.221 565.579 268.758 568.28 262.297 571.015C255.831 573.627 249.366 576.08 242.9 578.374C236.439 580.19 229.975 581.704 223.51 582.915C217.044 583.432 210.581 583.584 204.12 583.372C197.654 582.444 191.188 581.191 184.723 579.613C178.262 577.501 171.798 575.196 165.333 572.699C158.871 569.99 152.408 567.276 145.942 564.558C139.477 562.017 133.013 559.657 126.552 557.479C120.087 555.812 113.621 554.465 107.155 553.435C100.694 553.117 94.2308 553.163 87.7652 553.574C81.2996 554.683 74.8362 556.106 68.375 557.843C61.9094 560.075 55.446 562.479 48.9848 565.056C42.5192 567.782 36.0536 570.492 29.588 573.183C23.1268 575.645 16.6634 577.901 10.1978 579.951C3.73223 581.454 -2.73117 582.627 -9.19236 583.471C-15.6535 583.591 -22.117 583.348 -28.5826 582.742C-35.0437 581.452 -41.5071 579.865 -47.9728 577.982C-54.4339 575.636 -60.8973 573.145 -67.3629 570.511C-67.3408 563.869 -67.3386 557.227 -67.3563 550.584C-67.4138 543.942 -67.4911 537.299 -67.5883 530.657C-67.7121 524.01 -67.8447 517.366 -67.9861 510.723C-68.1319 504.081 -68.2733 497.439 -68.4103 490.796C-68.5252 484.154 -68.6247 477.509 -68.7087 470.862C-68.7529 464.22 -68.7749 457.578 -68.7749 450.935C-68.7352 444.293 -68.6755 437.65 -68.596 431.008C-68.4811 424.366 -68.3573 417.721 -68.2247 411.074C-68.0789 404.432 -67.9353 397.79 -67.7938 391.147C-67.6701 384.505 -67.5574 377.862 -67.4557 371.22C-67.3939 364.573 -67.3519 357.929 -67.3298 351.286C-67.3475 344.644 -67.3873 338.001 -67.4491 331.359C-67.5508 324.717 -67.6635 318.072 -67.7872 311.425C-67.9286 304.783 -68.0723 298.141 -68.2181 291.498C-68.3551 284.856 -68.4788 278.213 -68.5893 271.571C-68.6733 264.924 -68.7352 258.28 -68.7749 251.637C-68.7749 244.995 -68.7529 238.352 -68.7087 231.71C-68.6291 225.068 -68.5319 218.425 -68.417 211.783C-68.28 205.136 -68.1386 198.491 -67.9927 191.849C-67.8513 185.207 -67.7187 178.564 -67.595 171.922C-67.4977 165.28 -67.4182 158.635 -67.3563 151.988C-67.3386 145.346 -67.3408 138.703 -67.3629 132.061C-67.4248 125.419 -67.5066 118.776 -67.6082 112.134C-67.7364 105.487 -67.8712 98.8424 -68.0126 92.2001C-68.1584 85.5577 -68.2976 78.9153 -68.4302 72.2729C-68.5451 65.6305 -68.6424 58.9881 -68.7219 52.3457C-68.7617 45.6989 -68.7794 39.0544 -68.7749 32.412C-68.7308 25.7696 -68.6645 19.1272 -68.5761 12.4848C-68.4612 5.84243 -68.3352 -0.80217 -68.1982 -7.44897C-68.0568 -14.0869 -67.9154 -20.7271 -67.7739 -27.3695C-67.6502 -34.0119 -67.5397 -40.6543 -67.4425 -47.2967C-67.385 -53.9435 -67.3475 -60.5881 -67.3298 -67.2304Z" fill="url(#paint3_linear_1_2)"/>
<path d="M-67.3298 -67.2304C-67.3475 -60.5881 -67.385 -53.9435 -67.4425 -47.2967C-67.5397 -40.6543 -67.6502 -34.0119 -67.7739 -27.3695C-67.9154 -20.7271 -68.0568 -14.0869 -68.1982 -7.44897C-68.3352 -0.80217 -68.4612 5.84243 -68.5761 12.4848C-68.6645 19.1272 -68.7308 25.7696 -68.7749 32.412C-68.7794 39.0544 -68.7617 45.6989 -68.7219 52.3457C-68.6424 58.9881 -68.5451 65.6305 -68.4302 72.2729C-68.2976 78.9153 -68.1584 85.5577 -68.0126 92.2001C-67.8712 98.8424 -67.7364 105.487 -67.6082 112.134C-67.5066 118.776 -67.4248 125.419 -67.3629 132.061C-67.3408 138.703 -67.3386 145.346 -67.3563 151.988C-67.4182 158.635 -67.4977 165.28 -67.595 171.922C-67.7187 178.564 -67.8513 185.207 -67.9927 191.849C-68.1386 198.491 -68.28 205.136 -68.417 211.783C-68.5319 218.425 -68.6291 225.068 -68.7087 231.71C-68.7529 238.352 -68.7749 244.995 -68.7749 251.637C-64.2406 252.866 -59.7063 254.059 -55.172 255.217C-50.6377 256.264 -46.1033 257.241 -41.569 258.147C-37.0347 258.885 -32.5026 259.528 -27.9727 260.076C-19.4697 260.491 -14.4846 260.71 -13.0174 260.732C-7.3605 257.701 -1.70586 254.503 3.94657 251.14C9.58133 247.481 15.2072 243.696 20.8243 239.784C26.4061 235.688 31.9745 231.527 37.5297 227.302C43.0452 223.033 48.5407 218.774 54.0164 214.527C59.4434 210.382 64.8506 206.318 70.2378 202.336C75.5765 198.58 80.893 194.958 86.1875 191.471C91.4422 188.285 96.6748 185.26 101.885 182.396C107.065 179.85 112.229 177.457 117.378 175.217C122.504 173.254 127.622 171.407 132.731 169.675C137.835 168.123 142.942 166.63 148.051 165.193C153.168 163.81 158.297 162.418 163.437 161.017C168.607 159.528 173.796 157.968 179.002 156.337C184.261 154.503 189.549 152.549 194.865 150.477C200.244 148.126 205.658 145.631 211.107 142.992C216.635 140.062 222.204 136.991 227.812 133.778C233.504 130.313 239.236 126.74 245.008 123.059C250.868 119.214 256.768 115.311 262.708 111.352C268.727 107.343 274.782 103.339 280.872 99.3396C287.028 95.4152 293.211 91.5526 299.42 87.7519C305.678 84.1324 311.951 80.6212 318.24 77.2182C324.555 74.0583 330.875 71.0289 337.199 68.1297C343.515 65.4957 349.819 62.9877 356.112 60.6056C362.375 58.4578 368.613 56.4072 374.826 54.4538C380.974 52.6551 387.081 50.9072 393.149 49.2102C399.133 47.5662 405.064 45.9177 410.942 44.2648C416.709 42.5545 422.415 40.7868 428.058 38.9615C433.578 36.9861 439.034 34.9134 444.426 32.7434C449.68 30.3525 454.866 27.8467 459.984 25.226C464.974 22.3711 469.899 19.4034 474.76 16.3231C479.498 13.035 484.183 9.65859 488.814 6.19377C493.344 2.58752 497.83 -1.06732 502.271 -4.77079C506.642 -8.51846 510.986 -12.2639 515.304 -16.0072C511.967 -23.7235 508.834 -31.4398 505.904 -39.1561C503.734 -46.8724 502.077 -54.5887 500.932 -62.305C500.945 -70.0213 501.538 -77.7376 502.709 -85.4539C504.901 -93.1702 507.471 -100.887 510.418 -108.603C503.887 -107.679 497.355 -106.769 490.823 -105.872C484.295 -105.063 477.766 -104.331 471.234 -103.677C464.706 -103.213 458.177 -102.864 451.645 -102.63C445.117 -102.643 438.587 -102.776 432.056 -103.028C425.528 -103.505 418.998 -104.08 412.467 -104.751C405.939 -105.569 399.409 -106.428 392.877 -107.33C386.35 -108.254 379.82 -109.157 373.288 -110.041C366.761 -110.824 360.231 -111.526 353.699 -112.149C347.172 -112.565 340.642 -112.868 334.11 -113.058C327.583 -112.996 321.053 -112.815 314.521 -112.514C307.994 -111.997 301.464 -111.387 294.932 -110.684C288.405 -109.845 281.875 -108.97 275.343 -108.059C268.816 -107.136 262.286 -106.238 255.754 -105.368C249.226 -104.616 242.697 -103.949 236.165 -103.366C229.637 -102.99 223.108 -102.734 216.576 -102.597C210.044 -102.703 203.514 -102.928 196.987 -103.273C190.455 -103.834 183.925 -104.482 177.398 -105.215C170.866 -106.073 164.336 -106.961 157.809 -107.88C151.277 -108.795 144.747 -109.679 138.22 -110.532C131.688 -111.252 125.158 -111.886 118.63 -112.434C112.099 -112.766 105.569 -112.976 99.0414 -113.064C92.5095 -112.91 85.9798 -112.636 79.4523 -112.242C72.9204 -111.646 66.3907 -110.967 59.8633 -110.207C53.3314 -109.332 46.8017 -108.433 40.2742 -107.509C33.7423 -106.599 27.2126 -105.728 20.6851 -104.897C14.1532 -104.208 7.62352 -103.609 1.09604 -103.101C-5.43586 -102.818 -11.9633 -102.656 -18.4864 -102.617C-25.0183 -102.82 -31.548 -103.138 -38.0755 -103.571C-44.6074 -104.203 -51.1371 -104.915 -57.6645 -105.706C-64.1964 -106.594 -70.7283 -107.502 -77.2602 -108.43C-83.7877 -109.328 -90.3174 -110.181 -96.8493 -110.989C-100.951 -105.677 -99.1584 -98.9088 -91.4731 -90.6843C-87.4072 -86.835 -83.3568 -82.9613 -79.3219 -79.0634C-75.3135 -75.1257 -71.3161 -71.1814 -67.3298 -67.2304Z" fill="url(#paint4_linear_1_2)"/>
<path d="M529.729 248.568C534.263 247.339 538.798 246.148 543.332 244.995C547.866 243.952 552.401 242.98 556.935 242.078C561.469 241.349 566.004 240.715 570.538 240.175C576.875 243.061 580.051 249.377 580.064 259.121C577.58 265.649 574.858 272.179 571.897 278.711C568.719 285.238 565.579 291.768 562.477 298.3C559.724 304.827 557.266 311.357 555.105 317.889C553.735 324.416 552.821 330.946 552.361 337.478C552.847 344.005 553.788 350.535 555.185 357.067C557.368 363.594 559.843 370.124 562.61 376.656C565.721 383.183 568.861 389.713 572.029 396.245C574.982 402.772 577.693 409.302 580.163 415.834C581.927 422.362 583.259 428.891 584.161 435.423C584.121 441.951 583.611 448.48 582.629 455.012C580.8 461.54 578.625 468.069 576.106 474.601C573.123 481.129 570.043 487.658 566.865 494.19C563.776 500.718 560.868 507.247 558.142 513.779C556.02 520.307 554.299 526.837 552.977 533.368C552.566 539.896 552.633 546.426 553.176 552.957C547.245 553.249 541.312 553.839 535.377 554.727C529.446 556.164 523.515 557.83 517.585 559.726C511.649 561.966 505.716 564.313 499.785 566.766C493.854 569.276 487.924 571.744 481.993 574.171C476.057 576.363 470.124 578.371 464.194 580.197C458.263 581.549 452.33 582.621 446.394 583.412C440.463 583.602 434.533 583.482 428.602 583.054C422.671 582.037 416.738 580.756 410.803 579.209C404.872 577.229 398.941 575.09 393.01 572.792C387.079 570.313 381.146 567.82 375.211 565.314C369.28 562.928 363.349 560.674 357.418 558.552C351.483 556.824 345.55 555.344 339.619 554.111C333.688 553.448 327.757 553.088 321.826 553.03C315.891 553.592 309.958 554.442 304.027 555.583C298.096 557.231 292.163 559.087 286.228 561.151C280.297 563.502 274.366 565.926 268.435 568.423C262.505 570.916 256.572 573.331 250.636 575.669C244.705 577.715 238.775 579.554 232.844 581.184C226.913 582.298 220.98 583.12 215.044 583.65C209.114 583.566 203.183 583.18 197.252 582.49C191.317 581.231 185.384 579.726 179.453 577.976C173.522 575.841 167.591 573.576 161.66 571.181C155.725 568.671 149.792 566.18 143.861 563.71C137.93 561.421 131.999 559.295 126.068 557.333C120.133 555.808 114.2 554.551 108.269 553.561C102.338 553.163 96.4052 553.072 90.4699 553.289C84.5391 554.111 78.6082 555.209 72.6773 556.584C66.7465 558.431 60.8134 560.457 54.8781 562.663C48.9473 565.093 43.0164 567.566 37.0856 570.081C31.1503 572.524 25.2172 574.86 19.2864 577.088C13.3555 578.961 7.42465 580.605 1.49379 582.02C-7.41576 580.773 -13.3577 576.851 -16.3319 570.253C-16.3143 565.767 -16.2899 561.282 -16.259 556.796C-16.2104 552.31 -16.1574 547.824 -16.0999 543.339C-15.8789 536.612 -15.5828 532.129 -15.2116 529.888C-9.66524 526.843 -4.09457 523.566 1.50042 520.057C7.12634 516.124 12.7699 512.012 18.4312 507.72C24.1278 503.142 29.8377 498.468 35.5609 493.7C41.3061 488.843 47.0602 483.993 52.8231 479.149C58.5993 474.424 64.3777 469.806 70.1583 465.294C75.9345 461.078 81.704 457.047 87.4669 453.202C93.2122 449.773 98.9442 446.567 104.663 443.584C110.351 441.056 116.016 438.746 121.66 436.656C127.255 434.968 132.823 433.45 138.365 432.102C143.85 431.028 149.303 430.047 154.726 429.159C160.087 428.363 165.417 427.561 170.716 426.752C175.948 425.842 181.148 424.834 186.314 423.729C191.427 422.35 196.514 420.801 201.574 419.082C206.581 416.974 211.571 414.656 216.543 412.128C221.479 409.176 226.407 406.019 231.326 402.655C236.231 398.912 241.137 395.008 246.042 390.942C250.961 386.615 255.893 382.2 260.838 377.697C265.815 373.1 270.818 368.506 275.847 363.915C280.934 359.411 286.056 354.999 291.213 350.676C296.45 346.606 301.734 342.693 307.063 338.936C312.49 335.538 317.968 332.334 323.497 329.324C329.132 326.716 334.822 324.299 340.567 322.072C346.427 320.198 352.34 318.479 358.306 316.914C364.379 315.593 370.502 314.358 376.676 313.209C382.943 312.143 389.251 311.083 395.602 310.027C402.028 308.891 408.482 307.673 414.966 306.374C421.493 304.845 428.036 303.17 434.595 301.349C441.166 299.201 447.736 296.872 454.303 294.362C460.848 291.485 467.373 288.429 473.879 285.194C480.327 281.627 486.735 277.917 493.103 274.064C499.383 269.98 505.61 265.817 511.784 261.574C520.791 255.073 526.773 250.738 529.729 248.568Z" fill="url(#paint5_linear_1_2)"/>
</g>
</g>
</g>
<defs>
<filter id="filter0_f_1_2" x="-113.99" y="-128.064" width="713.151" height="726.741" filterUnits="userSpaceOnUse" color-interpolation-filters="sRGB">
<feFlood flood-opacity="0" result="BackgroundImageFix"/>
<feBlend mode="normal" in="SourceGraphic" in2="BackgroundImageFix" result="shape"/>
<feGaussianBlur stdDeviation="7.5" result="effect1_foregroundBlur_1_2"/>
</filter>
<filter id="filter1_f_1_2" x="-113.99" y="-128.064" width="713.151" height="726.741" filterUnits="userSpaceOnUse" color-interpolation-filters="sRGB">
<feFlood flood-opacity="0" result="BackgroundImageFix"/>
<feBlend mode="normal" in="SourceGraphic" in2="BackgroundImageFix" result="shape"/>
<feGaussianBlur stdDeviation="7.5" result="effect1_foregroundBlur_1_2"/>
</filter>
<linearGradient id="paint0_linear_1_2" x1="242.585" y1="-113.064" x2="242.585" y2="583.677" gradientUnits="userSpaceOnUse">
<stop offset="0.1" stop-color="#FEBE58"/>
<stop offset="0.9" stop-color="#DE2BAE"/>
</linearGradient>
<linearGradient id="paint1_linear_1_2" x1="-103.134" y1="493.668" x2="-536.687" y2="234.998" gradientUnits="userSpaceOnUse">
<stop offset="0.25" stop-color="#FEBE58"/>
<stop offset="1" stop-color="#DE2BAE"/>
</linearGradient>
<linearGradient id="paint2_linear_1_2" x1="367.077" y1="76.8306" x2="523.011" y2="382.869" gradientUnits="userSpaceOnUse">
<stop stop-color="#FEBE58"/>
<stop offset="0.75" stop-color="#DE2BAE"/>
</linearGradient>
<linearGradient id="paint3_linear_1_2" x1="242.585" y1="-113.064" x2="242.585" y2="583.677" gradientUnits="userSpaceOnUse">
<stop offset="0.1" stop-color="#FEBE58"/>
<stop offset="0.9" stop-color="#DE2BAE"/>
</linearGradient>
<linearGradient id="paint4_linear_1_2" x1="-103.134" y1="493.668" x2="-536.687" y2="234.998" gradientUnits="userSpaceOnUse">
<stop offset="0.25" stop-color="#FEBE58"/>
<stop offset="1" stop-color="#DE2BAE"/>
</linearGradient>
<linearGradient id="paint5_linear_1_2" x1="367.077" y1="76.8306" x2="523.011" y2="382.869" gradientUnits="userSpaceOnUse">
<stop stop-color="#FEBE58"/>
<stop offset="0.75" stop-color="#DE2BAE"/>
</linearGradient>
<clipPath id="clip0_1_2">
<rect width="500" height="500" fill="white"/>
</clipPath>
</defs>
</svg>
